<?xml version="1.0" encoding="utf-8"?><svg xml:space="preserve" viewBox="0 0 100 100" y="0" x="0" xmlns="http://www.w3.org/2000/svg" id="圖層_1" version="1.1" width="200px" height="200px" xmlns:xlink="http://www.w3.org/1999/xlink" style="width:100%;height:100%;background-size:initial;background-repeat-y:initial;background-repeat-x:initial;background-position-y:initial;background-position-x:initial;background-origin:initial;background-image:initial;background-color:rgb(255, 255, 255);background-clip:initial;background-attachment:initial;animation-play-state:paused" ><g class="ldl-scale" style="transform-origin:50% 50%;transform:rotate(0deg) scale(0.8, 0.8);animation-play-state:paused" ><g style="animation-play-state:paused" ><path fill="#f47e60" d="M53.115 66.105l-35.702 8.389v-58.83l34.518-8.089a2.412 2.412 0 0 1 3.004 2.338v53.854c0 1.104-.75 2.067-1.82 2.338z" style="fill:rgb(244, 126, 96);animation-play-state:paused" ></path>
<path fill="#e0e0e0" d="M52.78 10.246l11.766 6.863-35.367 8.359c-6.171.09-10.093-2.198-11.766-6.863l35.367-8.359z" style="fill:rgb(224, 224, 224);animation-play-state:paused" ></path>
<path fill="#e15b64" d="M64.881 72.968l-35.702 8.389V22.528l34.518-8.089a2.412 2.412 0 0 1 3.004 2.338V70.63c0 1.104-.75 2.067-1.82 2.338z" style="fill:rgb(225, 91, 100);animation-play-state:paused" ></path>
<path fill="#f8b26a" d="M17.413 15.664v58.829c1.696 5.721 6.396 6.808 11.766 6.863V22.528c-6.327.006-10.249-2.282-11.766-6.864z" style="fill:rgb(248, 178, 106);animation-play-state:paused" ></path></g>
<g style="animation-play-state:paused" ><path fill="#f47e60" d="M68.649 76.852l-36.627 8.606V25.105l35.413-8.299a2.474 2.474 0 0 1 3.081 2.399v55.249c0 1.132-.769 2.12-1.867 2.398z" style="fill:rgb(244, 126, 96);animation-play-state:paused" ></path>
<path fill="#e0e0e0" d="M68.305 19.546l12.071 7.041-36.284 8.576c-6.33.092-10.354-2.255-12.071-7.041l36.284-8.576z" style="fill:rgb(224, 224, 224);animation-play-state:paused" ></path>
<path fill="#e15b64" d="M80.72 83.894L44.093 92.5V32.146l35.413-8.299a2.474 2.474 0 0 1 3.081 2.399v55.249a2.474 2.474 0 0 1-1.867 2.399z" style="fill:rgb(225, 91, 100);animation-play-state:paused" ></path>
<path fill="#f8b26a" d="M32.022 25.105v60.354c1.74 5.869 6.562 6.985 12.071 7.041V32.146c-6.492.006-10.515-2.341-12.071-7.041z" style="fill:rgb(248, 178, 106);animation-play-state:paused" ></path></g>
<metadata xmlns:d="https://loading.io/stock/" style="animation-play-state:paused" ><d:name style="animation-play-state:paused" >book</d:name>


<d:tags style="animation-play-state:paused" >bible,document,dictionary,publication,dairy,manual,hardcover,paperback,booklet,book,books</d:tags>


<d:license style="animation-play-state:paused" >by</d:license>


<d:slug style="animation-play-state:paused" >g9r5dd</d:slug></metadata></g><!-- generated by https://loading.io/ --></svg>